# xmcd
#
# Track frame offsets:
#	150
#	18076
#	31120
#	48224
#	60770
#	77029
#	90719
#	101816
#	115260
#	127108
#	142360
#	167631
#	179793
#	194518
#	209042
#	222248
#
# Disc length: 3160 seconds
#
# Revision: 0
# Processed by: cddbd v1.4PL0 Copyright (c) Steve Scherf et al.
# Submitted via: dBpowerAMP V4.0
#
DISCID=ea0c5610
DTITLE=Gordon Bonham - Get Back Home
DYEAR=1997
DGENRE=Blues
TTITLE0=When My Baby Left Me
TTITLE1=Baby Please Don't Go
TTITLE2=Low Down and Blue
TTITLE3=Leaving Texas
TTITLE4=65 Highway
TTITLE5=Preachin' Blues
TTITLE6=I Got an Angel
TTITLE7=Broke and Hungry
TTITLE8=Aberdeen, Mississippi Blues
TTITLE9=Coffee Song
TTITLE10=Done Left Here
TTITLE11=Take Me Back
TTITLE12=Special Recipe
TTITLE13=Nobody's Fault But Mine
TTITLE14=Sleeping Beauty
TTITLE15=Get Back Home
EXTD=
EXTT0=
EXTT1=
EXTT2=
EXTT3=
EXTT4=
EXTT5=
EXTT6=
EXTT7=
EXTT8=
EXTT9=
EXTT10=
EXTT11=
EXTT12=
EXTT13=
EXTT14=
EXTT15=
PLAYORDER=
